<svg width="27" height="27" viewBox="0 0 27 27" fill="none" xmlns="http://www.w3.org/2000/svg">
<path d="M15.2117 20.6444H20.6444V5.43284H5.43284V20.6444H13.0386V15.2117H10.8655V13.0386H13.0386V11.2413C13.0386 9.78829 13.1899 9.26139 13.474 8.73019C13.7581 8.199 14.1749 7.78211 14.7061 7.49803C15.1219 7.27566 15.6378 7.14145 16.5391 7.08388C16.8969 7.06103 17.3599 7.09017 17.928 7.1713V9.23573H17.3848C16.3881 9.23573 15.9768 9.2828 15.7309 9.41428C15.5785 9.49583 15.4718 9.60252 15.3902 9.75502C15.2587 10.0008 15.2117 10.2446 15.2117 11.2413V13.0386H17.928L17.3848 15.2117H15.2117V20.6444ZM4.3463 3.25977H21.7309C22.331 3.25977 22.8175 3.74623 22.8175 4.3463V21.7309C22.8175 22.331 22.331 22.8175 21.7309 22.8175H4.3463C3.74623 22.8175 3.25977 22.331 3.25977 21.7309V4.3463C3.25977 3.74623 3.74623 3.25977 4.3463 3.25977Z" fill="#F2F2F2"/>
</svg>
