<svg width="27" height="27" viewBox="0 0 27 27" fill="none" xmlns="http://www.w3.org/2000/svg">
<path d="M13.9606 9.7796C12.1598 9.7796 10.701 11.2389 10.701 13.0392C10.701 14.8399 12.1603 16.2988 13.9606 16.2988C15.7613 16.2988 17.2202 14.8395 17.2202 13.0392C17.2202 11.2385 15.7609 9.7796 13.9606 9.7796ZM13.9606 7.60652C16.9599 7.60652 19.3933 10.0372 19.3933 13.0392C19.3933 16.0386 16.9626 18.4719 13.9606 18.4719C10.9612 18.4719 8.52791 16.0412 8.52791 13.0392C8.52791 10.0399 10.9586 7.60652 13.9606 7.60652ZM21.0231 7.33396C21.0231 8.08379 20.4138 8.69216 19.6649 8.69216C18.9151 8.69216 18.3068 8.08286 18.3068 7.33396C18.3068 6.58507 18.916 5.97671 19.6649 5.97671C20.4128 5.97577 21.0231 6.58507 21.0231 7.33396ZM13.9606 4.34691C11.272 4.34691 10.8338 4.35402 9.58325 4.40971C8.73127 4.4497 8.16017 4.56429 7.62954 4.7703C7.15798 4.95318 6.81782 5.17157 6.45538 5.534C6.09155 5.89783 5.87356 6.23708 5.69141 6.70886C5.48493 7.24071 5.37037 7.81091 5.33109 8.66171C5.27487 9.86131 5.26829 10.2805 5.26829 13.0392C5.26829 15.7279 5.27541 16.1661 5.33108 17.4164C5.3711 18.2681 5.48584 18.84 5.69135 19.3694C5.87471 19.8416 6.09354 20.1826 6.45423 20.5433C6.81949 20.908 7.15975 21.1268 7.62705 21.3071C8.16414 21.5148 8.73489 21.6295 9.58309 21.6687C10.7827 21.7249 11.2019 21.7315 13.9606 21.7315C16.6493 21.7315 17.0875 21.7243 18.3378 21.6687C19.1876 21.6288 19.76 21.5138 20.2908 21.3084C20.7617 21.1256 21.1037 20.906 21.4647 20.5456C21.83 20.1797 22.0483 19.8403 22.2289 19.3719C22.4359 18.8368 22.5509 18.2652 22.5901 17.4168C22.6463 16.2171 22.6529 15.7978 22.6529 13.0392C22.6529 10.3506 22.6458 9.91238 22.5901 8.66195C22.5501 7.81194 22.4351 7.23872 22.2295 6.70815C22.0471 6.2379 21.8279 5.89669 21.4658 5.534C21.1014 5.16958 20.763 4.95203 20.2909 4.77003C19.7595 4.56371 19.1884 4.449 18.3381 4.40972C17.1385 4.35348 16.7192 4.34691 13.9606 4.34691ZM13.9606 2.17383C16.9123 2.17383 17.2809 2.18469 18.4399 2.23902C19.5961 2.29245 20.3848 2.47534 21.0774 2.74426C21.7936 3.02043 22.3985 3.39347 23.0024 3.9974C23.6054 4.60134 23.9785 5.20799 24.2556 5.92239C24.5235 6.61415 24.7065 7.4037 24.7608 8.55996C24.8124 9.71894 24.826 10.0874 24.826 13.0392C24.826 15.991 24.8151 16.3595 24.7608 17.5185C24.7074 18.6748 24.5235 19.4634 24.2556 20.156C23.9794 20.8723 23.6054 21.4771 23.0024 22.0811C22.3985 22.6841 21.7909 23.0571 21.0774 23.3342C20.3848 23.6022 19.5961 23.7851 18.4399 23.8394C17.2809 23.891 16.9123 23.9046 13.9606 23.9046C11.0088 23.9046 10.6403 23.8937 9.48134 23.8394C8.32508 23.7859 7.53734 23.6022 6.84377 23.3342C6.12846 23.058 5.52272 22.6841 4.91879 22.0811C4.31485 21.4771 3.94271 20.8696 3.66565 20.156C3.39673 19.4634 3.21473 18.6748 3.16041 17.5185C3.1088 16.3595 3.09521 15.991 3.09521 13.0392C3.09521 10.0874 3.10608 9.71894 3.16041 8.55996C3.21382 7.40279 3.39673 6.61505 3.66565 5.92239C3.9418 5.20708 4.31485 4.60134 4.91879 3.9974C5.52272 3.39347 6.12937 3.02133 6.84377 2.74426C7.53644 2.47534 8.32418 2.29335 9.48134 2.23902C10.6403 2.18741 11.0088 2.17383 13.9606 2.17383Z" fill="#F2F2F2"/>
</svg>
