<svg width="27" height="27" viewBox="0 0 27 27" fill="none" xmlns="http://www.w3.org/2000/svg">
<path d="M4.80822 3.25977H22.1929C22.7929 3.25977 23.2794 3.74623 23.2794 4.3463V21.7309C23.2794 22.331 22.7929 22.8175 22.1929 22.8175H4.80822C4.20813 22.8175 3.72168 22.331 3.72168 21.7309V4.3463C3.72168 3.74623 4.20813 3.25977 4.80822 3.25977ZM5.89476 5.43284V20.6444H21.1063V5.43284H5.89476ZM8.6111 9.779C7.71098 9.779 6.9813 9.04931 6.9813 8.14919C6.9813 7.24907 7.71098 6.51938 8.6111 6.51938C9.51121 6.51938 10.2409 7.24907 10.2409 8.14919C10.2409 9.04931 9.51121 9.779 8.6111 9.779ZM7.52456 10.8655H9.69764V19.0146H7.52456V10.8655ZM13.5005 11.3322C14.1355 10.7192 14.8756 10.3223 15.6736 10.3223C17.9238 10.3223 19.4765 12.1465 19.4765 14.3968V19.0146H17.3034V14.3968C17.3034 13.3466 16.4521 12.4953 15.402 12.4953C14.3519 12.4953 13.5005 13.3466 13.5005 14.3968V19.0146H11.3275V10.8655H13.5005V11.3322Z" fill="#F2F2F2"/>
</svg>
