<svg width="36" height="36" viewBox="0 0 36 36" xmlns="http://www.w3.org/2000/svg">
<path d="M36 18.0874C36 18.2469 35.9975 18.4038 35.9923 18.5607C35.9898 18.6661 35.9872 18.7715 35.9821 18.877C32.9789 18.8924 30.5334 19.3631 28.4997 20.3198C27.8627 20.6104 27.2539 20.9627 26.6886 21.3716C26.5632 21.4616 26.443 21.5542 26.3253 21.6494C25.6807 22.1586 25.1051 22.7398 24.6114 23.3725C22.4728 26.096 21.4649 30.0051 21.4496 35.6682C20.9482 35.7685 20.4903 35.8354 20.0478 35.8843C19.9096 35.9023 19.774 35.9151 19.6359 35.928L19.5233 35.9383C19.045 35.9769 18.5666 35.9949 18.101 36L18.9324 32.8547L17.1341 35.9794C16.4894 35.9511 15.8474 35.8868 15.2155 35.7865L19.2522 28.7501L12.8032 35.2362C12.2021 35.0536 11.5882 34.8324 10.9844 34.5752L20.6131 24.895L7.42869 32.5487C6.91451 32.1732 6.42592 31.7771 5.96291 31.3605L22.8872 21.5336L2.46088 27.0424C2.15135 26.5101 1.87508 25.9726 1.63206 25.4351L25.9672 18.8796H0.0281352C0.0179029 18.7484 0.0153429 18.6172 0.0102267 18.4835C0.00255247 18.2932 0 18.1054 0 17.91C0 17.7505 0.00254997 17.5937 0.00766615 17.4368C0.0102242 17.3313 0.0153504 17.2259 0.0179085 17.1204C3.02111 17.105 5.47175 16.6344 7.50799 15.6777C8.1424 15.3871 8.75123 15.0347 9.31912 14.6232C9.43935 14.5332 9.56213 14.4432 9.67981 14.3481C10.3142 13.8491 10.8949 13.2679 11.3963 12.6249C13.5323 9.90141 14.5351 5.98971 14.5504 0.32919C15.0518 0.22889 15.5097 0.159451 15.9548 0.115731C16.0955 0.0977283 16.2311 0.0848693 16.3692 0.0720103L16.4767 0.0617231C16.955 0.0231462 17.4334 0 17.9015 0L17.0599 3.15302L18.8634 0.0205744C19.508 0.0514359 20.1475 0.115731 20.7819 0.213459L16.7427 7.24989L23.1891 0.768967C23.8005 0.951565 24.4119 1.17274 25.0079 1.42992L15.3844 11.105L28.5688 3.45392C29.0906 3.83455 29.5817 4.23575 30.032 4.64209L13.1102 14.4689L33.534 8.96014C33.8461 9.49507 34.1275 10.0326 34.3654 10.5649L10.0277 17.123H35.9719C35.9744 17.1925 35.977 17.2619 35.977 17.3313C35.9847 17.4239 35.9872 17.5139 35.9872 17.6065C35.9949 17.7711 35.9949 17.9306 35.9949 18.0926" />
</svg>
