<svg width="231" height="58" viewBox="0 0 231 58" fill="none" xmlns="http://www.w3.org/2000/svg">
<g clip-path="url(#clip0_1_335)">
<path d="M0 36.5703H4.57774L13.1947 50.1539L21.7817 36.5703H26.3893V57.5142H21.2431V45.4266L13.7033 57.5142H12.686L5.14622 45.4565V57.5142H0V36.5703Z" fill="#AD9467"/>
<path d="M30.8887 36.5703H51.5334V40.9386H36.0349V44.4093H49.7681V48.5083H36.0349V53.1459H51.5334V57.5142H30.8887V36.5703Z" fill="#AD9467"/>
<path d="M62.5832 40.9386H53.7568V36.5703H76.5857V40.9386H67.7294V57.5142H62.5832V40.9386Z" fill="#AD9467"/>
<path d="M106.805 36.5703H111.951V53.1459H125.864V57.5142H106.805V36.5703Z" fill="#AD9467"/>
<path d="M128.285 36.5703H133.431V53.1459H147.344V57.5142H128.285V36.5703Z" fill="#AD9467"/>
<path d="M182.536 36.5703H199.201C203.539 36.5703 205.933 38.9041 205.933 42.1055C205.933 45.3069 203.21 47.3714 199.201 47.3714L197.047 47.4013V47.4611C202.073 47.7903 204.198 50.6925 207.668 57.5142H201.505C197.615 50.5429 196.598 48.8375 193.097 48.8375H187.652L187.682 57.5142H182.536V36.5703ZM198.154 44.8282C199.979 44.8282 200.787 44.17 200.787 42.8535C200.787 41.3575 199.949 40.7292 198.154 40.7292H187.622L187.652 44.8282H198.154Z" fill="#AD9467"/>
<path d="M216.997 40.9386H208.171V36.5703H231V40.9386H222.143V57.5142H216.997V40.9386Z" fill="#AD9467"/>
<path d="M73.2944 57.5142H79.3382L81.6122 53.5349H96.1251L98.3991 57.5142H104.413L91.755 36.5703H91.5736C86.7397 36.5703 84.4115 39.1528 80.7052 45.2508C80.5855 45.449 80.4658 45.6472 80.3424 45.8529L73.2944 57.5142ZM84.0674 49.1666L88.8546 40.789L93.6418 49.1666H84.0674Z" fill="#AD9467"/>
<path d="M149.027 57.5142H155.071L157.345 53.5349H171.858L174.131 57.5142H180.145L167.487 36.5703H167.306C162.472 36.5703 160.144 39.1528 156.438 45.2508C156.318 45.449 156.198 45.6472 156.075 45.8529L149.027 57.5142ZM159.798 49.1666L164.585 40.789L169.372 49.1666H159.798Z" fill="#AD9467"/>
<path d="M128.618 13.1556C128.618 13.2715 128.616 13.3856 128.613 13.4996C128.611 13.5763 128.609 13.653 128.605 13.7296C126.41 13.7409 124.622 14.0831 123.135 14.7787C122.67 14.99 122.225 15.2462 121.811 15.5435C121.72 15.609 121.632 15.6763 121.546 15.7455C121.075 16.1157 120.654 16.5384 120.293 16.9984C118.73 18.9787 117.993 21.8211 117.982 25.9388C117.615 26.0117 117.28 26.0604 116.957 26.0959C116.856 26.109 116.757 26.1183 116.656 26.1277L116.574 26.1352C116.224 26.1632 115.874 26.1763 115.534 26.18L116.142 23.893L114.827 26.1651C114.356 26.1445 113.886 26.0978 113.424 26.0248L116.375 20.9085L111.661 25.6247C111.222 25.4919 110.773 25.3311 110.332 25.1441L117.37 18.1054L107.732 23.6705C107.356 23.3975 106.999 23.1095 106.661 22.8066L119.033 15.6613L104.101 19.6669C103.874 19.2798 103.672 18.8889 103.495 18.4981L121.284 13.7315H102.322C102.315 13.6361 102.313 13.5408 102.309 13.4435C102.304 13.3052 102.302 13.1686 102.302 13.0265C102.302 12.9106 102.304 12.7965 102.307 12.6824C102.309 12.6058 102.313 12.5291 102.315 12.4524C104.51 12.4412 106.302 12.099 107.79 11.4034C108.254 11.1921 108.699 10.9359 109.114 10.6367C109.202 10.5712 109.292 10.5058 109.378 10.4366C109.842 10.0738 110.266 9.65119 110.633 9.18369C112.194 7.20337 112.927 4.35912 112.938 0.243265C113.305 0.170335 113.64 0.119846 113.965 0.0880558C114.068 0.0749659 114.167 0.065616 114.268 0.056266L114.346 0.048786C114.696 0.0207362 115.046 0.00390625 115.388 0.00390625L114.773 2.29652L116.091 0.0188662C116.562 0.0413061 117.03 0.0880559 117.494 0.159116L114.541 5.27541L119.253 0.563034C119.7 0.695803 120.147 0.856622 120.583 1.04362L113.548 8.07853L123.186 2.5153C123.567 2.79206 123.926 3.08378 124.255 3.37924L111.885 10.5245L126.815 6.51896C127.044 6.90791 127.249 7.29874 127.423 7.68583L109.632 12.4543H128.598C128.599 12.5048 128.601 12.5553 128.601 12.6058C128.607 12.6731 128.609 12.7385 128.609 12.8059C128.614 12.9255 128.614 13.0415 128.614 13.1593" fill="#AD9467"/>
</g>
<defs>
<clipPath id="clip0_1_335">
<rect width="231" height="57.5134" fill="white"/>
</clipPath>
</defs>
</svg>
