<svg viewBox="0 0 340 30" xmlns="http://www.w3.org/2000/svg">
        <path
          d="M0 1.85547H5.62601L17.8738 22.609L30.1464 1.85547H35.7475V29.3099H31.2169V7.95377L18.297 29.2858H17.5253L4.53068 8.1225V29.3099H0V1.85547Z"
        ></path>
        <path
          d="M40.104 24.7542C40.104 18.1979 54.7416 18.1256 59.098 17.6917C59.0482 13.5217 57.1065 12.2683 52.1775 12.2683C49.016 12.2683 45.3815 13.3771 42.6432 14.51V11.1836C46.0536 9.97845 50.2109 9.0625 53.7956 9.0625C60.8904 9.0625 63.6536 12.7504 63.6536 18.2461V29.3098H59.0731L60.2929 22.6812H59.9693C58.6748 27.6708 53.8454 29.9365 47.6468 29.9365C44.6596 29.9365 40.104 29.3098 40.104 24.7542ZM58.9984 20.3914C54.2935 20.777 44.9085 20.7529 44.9085 24.248C44.9085 25.8147 46.4768 26.7307 49.24 26.7307C54.169 26.7066 58.874 24.5131 58.9984 20.3914Z"
        ></path>
        <path
          d="M67.4624 19.3308C67.4624 13.1602 72.5656 9.06255 78.1668 9.06255C83.2202 9.06255 88.1243 11.1837 89.1449 16.0527H89.3192V1.85547H93.8499V29.3099H89.1449L90.0411 22.9223H89.5432C88.5226 27.0441 84.4898 29.9366 79.4612 29.9366C72.5407 29.9366 67.4624 25.6943 67.4624 19.3308ZM88.0496 19.4272C88.0496 15.2332 84.3653 12.3166 80.0338 12.3166C75.1795 12.3166 72.0429 15.2091 72.0429 19.4272C72.0429 23.7419 75.1546 26.6825 80.0338 26.6825C84.3653 26.6825 88.0496 23.7419 88.0496 19.4272Z"
        ></path>
        <path
          d="M98.7041 19.4995C98.7041 13.2325 103.558 9.0625 110.902 9.0625C118.146 9.0625 122.976 12.6299 123.1 17.9569V21.1627H103.235C103.882 25.1157 106.645 26.6102 112.918 26.6102C117.872 26.6102 119.889 25.405 122.204 24.4408V27.9841C117.897 29.5509 115.682 29.9124 110.902 29.9124C103.558 29.9365 98.7041 25.7665 98.7041 19.4995ZM118.843 18.1738C118.769 14.6787 115.632 12.3165 110.902 12.3165C106.496 12.3165 103.434 14.7992 103.16 18.4871L118.843 18.1738Z"
        ></path>
        <path
          d="M139.878 2.69964C139.878 0.964158 141.098 0 142.791 0C144.534 0 145.778 0.988262 145.778 2.69964C145.778 4.45923 144.534 5.39928 142.791 5.39928C141.098 5.42339 139.878 4.48334 139.878 2.69964ZM140.6 9.68979H145.131V29.3104H140.6V9.68979Z"
        ></path>
        <path
          d="M150.683 9.6892H155.786L154.964 17.764H155.213C155.985 13.1843 159.147 9.0625 165.071 9.0625C170.872 9.13481 173.709 12.8709 173.709 20.8011V29.3098H169.179V21.4519C169.179 15.1849 167.361 12.3406 163.13 12.3406C158.176 12.3406 155.238 16.9686 155.238 24.4649V29.2857H150.708V9.6892H150.683Z"
        ></path>
        <path
          d="M189.118 20.6329H193.773C193.699 24.0556 197.981 26.2732 204.279 26.2732C211.647 26.2732 215.879 24.7787 215.879 21.5729C215.879 13.2571 189.915 22.055 189.915 9.71377C189.915 4.14576 195.84 1.20508 204.453 1.20508C213.689 1.20508 219.887 4.77246 219.962 10.461H215.257C215.307 7.03823 211 4.84477 204.752 4.84477C198.155 4.84477 194.495 6.33922 194.495 9.15938C194.495 16.9209 220.435 8.58089 220.435 21.356C220.435 26.924 213.913 29.9129 204.702 29.9129C195.143 29.937 188.944 26.2009 189.118 20.6329Z"
        ></path>
        <path
          d="M223.397 24.7542C223.397 18.1979 238.035 18.1256 242.391 17.6917C242.342 13.5217 240.4 12.2683 235.471 12.2683C232.309 12.2683 228.675 13.3771 225.937 14.51V11.1836C229.347 9.97845 233.504 9.0625 237.089 9.0625C244.184 9.0625 246.947 12.7504 246.947 18.2461V29.3098H242.367L243.586 22.6812H243.263C241.968 27.6708 237.139 29.9365 230.94 29.9365C227.928 29.9365 223.397 29.3098 223.397 24.7542ZM242.267 20.3914C237.562 20.777 228.177 20.7529 228.177 24.248C228.177 25.8147 229.745 26.7307 232.509 26.7307C237.438 26.7066 242.143 24.5131 242.267 20.3914Z"
        ></path>
        <path d="M252.647 1.85547H257.178V29.3099H252.647V1.85547Z"></path>
        <path
          d="M262.132 24.7542C262.132 18.1979 276.769 18.1256 281.126 17.6917C281.076 13.5217 279.134 12.2683 274.205 12.2683C271.044 12.2683 267.409 13.3771 264.696 14.51V11.1836C268.106 9.97845 272.264 9.0625 275.848 9.0625C282.943 9.0625 285.706 12.7504 285.706 18.2461V29.3098H281.126L282.346 22.6812H282.022C280.728 27.6708 275.898 29.9365 269.7 29.9365C266.663 29.9365 262.132 29.3098 262.132 24.7542ZM281.001 20.3914C276.296 20.777 266.911 20.7529 266.911 24.248C266.911 25.8147 268.48 26.7307 271.243 26.7307C276.172 26.7066 280.877 24.5131 281.001 20.3914Z"
        ></path>
        <path
          d="M289.465 19.4995C289.465 13.1843 294.892 9.0625 303.008 9.0625C306.667 9.0625 308.932 9.56868 312.168 10.9908V14.751C308.932 13.0155 306.294 12.3165 302.236 12.3165C297.382 12.3165 294.046 15.209 294.046 19.4995C294.046 23.7659 297.606 26.6825 302.808 26.6825C307.14 26.6825 309.505 26.0558 312.168 24.4167V27.9841C308.883 29.4303 306.991 29.9365 302.983 29.9365C295.191 29.9365 289.465 25.7665 289.465 19.4995Z"
        ></path>
        <path
          d="M316.998 1.85547H322.101L321.28 17.7882H321.529C322.3 13.2084 325.462 9.08665 331.387 9.08665C337.187 9.15897 340.025 12.8951 340.025 20.8253V29.334H335.494V21.452C335.494 15.185 333.677 12.3407 329.445 12.3407C324.491 12.3407 321.554 16.9686 321.554 24.465V29.2858H317.023V1.85547H316.998Z"
        ></path>

    </svg>