<svg width="82" height="82" viewBox="0 0 82 82" fill="none" xmlns="http://www.w3.org/2000/svg">
<path opacity="0.9" d="M41.0001 74.6612C22.2913 74.6612 7.12476 59.4938 7.12476 40.7842C7.12476 22.0745 22.2913 6.90723 41.0001 6.90723C59.7088 6.90723 74.8755 22.0745 74.8755 40.7842C74.8755 59.4938 59.7088 74.6612 41.0001 74.6612ZM36.3318 28.6379C36.1092 28.4895 35.8477 28.4104 35.5801 28.4104C34.8318 28.4104 34.225 29.017 34.225 29.7654V51.8031C34.225 52.0707 34.3043 52.3322 34.4527 52.5548C34.8677 53.1775 35.7091 53.3458 36.3318 52.9305L52.8592 41.9117C53.0079 41.8124 53.1356 41.6847 53.2349 41.536C53.6502 40.9133 53.4818 40.0718 52.8592 39.6568L36.3318 28.6379Z" fill="#F2F2F2"/>
</svg>
